<svg width="215" height="169" viewBox="0 0 215 169" fill="none" xmlns="http://www.w3.org/2000/svg">
<path d="M67.4178 5.75849C64.7303 9.8896 63.0411 12.7689 63.3482 13.0192C64.0393 13.5826 65.3446 12.3307 66.7268 9.70182C67.5714 8.13701 68.4161 6.88516 68.6464 6.88516C68.8768 6.88516 70.0286 8.01183 71.1803 9.45145C73.4071 12.2055 73.1 12.1429 80.625 10.8911C83.2357 10.4529 83.2357 10.5155 82.0071 11.6422C81.3161 12.2681 80.2411 13.8955 79.6268 15.1474L78.3982 17.4633L81.2393 17.8389C86.9982 18.6526 87.3821 19.2159 83.3125 21.2815C81.8536 22.0326 80.625 22.7211 80.625 22.9089C80.625 23.034 82.6214 24.0355 85.0018 25.1622L89.4553 27.1652L85.6161 28.0415C80.0107 29.2307 79.1661 29.5437 80.625 29.8566C81.3161 29.9818 84.5411 29.5437 87.9196 28.9178L94.0625 27.7285L88.9178 25.6003C86 24.4737 83.6964 23.2218 83.6964 22.8463C83.6964 22.4707 85.0786 21.4692 86.7678 20.6555C88.4571 19.7792 89.8393 18.9029 89.8393 18.6526C89.8393 18.4022 87.7661 17.9015 85.2321 17.4633C82.6982 17.0878 80.625 16.6496 80.625 16.5244C80.625 16.4618 81.7 14.7092 82.9286 12.7063C84.2339 10.7659 85.2321 8.95071 85.2321 8.70034C85.2321 8.44997 83.1589 8.82553 80.5482 9.45145C78.0143 10.0774 75.4036 10.6407 74.8661 10.6407C74.2518 10.6407 72.7161 9.20108 71.3339 7.51108C69.9518 5.75849 68.7232 4.38145 68.6464 4.38145C68.4928 4.38145 67.9553 5.00738 67.4178 5.75849Z" fill="#832020"/>
<path d="M43.9214 16.9626C35.7054 18.277 29.3321 22.5333 26.7982 28.4796C24.2643 34.4259 26.4911 40.1844 32.9411 44.3155C38.3161 47.8207 43.1536 49.01 50.7554 48.697C54.0571 48.5718 56.8214 48.5718 56.8214 48.697C56.8214 48.8222 55.8232 49.5733 54.5946 50.4496C52.1375 52.077 50.525 55.5822 47.3 65.7222C46.225 68.977 43.8446 76.6759 41.8482 82.8726C38.5464 93.5133 38.1625 96.0796 40.1589 97.1437C40.6964 97.394 40.4661 99.5848 39.6982 103.716C39.0071 107.096 38.0857 112.541 37.625 115.796C37.1643 119.114 36.55 122.556 36.2429 123.433C35.7821 124.997 31.2518 129.316 19.5036 139.581C16.9696 141.835 13.7446 144.589 12.4393 145.716C8.36964 149.346 8.29285 153.665 12.2857 156.794C14.2054 158.234 15.4339 158.672 19.1964 158.86C21.8071 159.048 24.725 158.797 26.0304 158.422C27.1821 157.984 31.0982 155.042 34.6304 151.912C41.925 145.403 49.2964 138.956 52.5214 136.139C57.2821 132.008 58.2804 130.13 59.5089 123.057C60.5839 116.61 61.0446 115.233 61.7357 115.859C61.8893 115.984 63.5786 118.488 65.4214 121.43L68.8 126.75L67.4946 130.506C65.7286 135.45 63.8089 141.835 62.1196 148.219C60.4304 154.666 61.0446 157.045 65.1143 159.298C67.2643 160.487 68.9536 160.863 72.025 160.863C79.0893 160.863 82.5446 158.61 84.0804 152.914C85.0786 149.158 90.0696 132.821 91.375 128.878C92.6036 125.123 92.2964 124.058 88.2268 117.737C86 114.419 82.9286 109.725 81.3161 107.221L78.3982 102.714L80.2411 100.023C81.9304 97.5818 84.5411 90.1959 87.1518 80.4314C87.7661 78.3659 88.6107 75.7996 89.0714 74.7981C89.5321 73.7966 89.6857 71.9814 89.4554 70.7296C88.6107 66.5359 94.1393 61.9666 100.052 61.9666C105.273 61.9666 107.5 63.1559 112.721 68.5388C113.029 68.8518 113.566 69.6655 113.873 70.2288C114.257 71.1677 115.409 71.3555 121.475 71.3555C130.996 71.3555 147.966 69.8533 151.268 68.7266C155.184 67.4122 156.029 66.2855 155.721 62.8429C155.491 60.214 155.184 59.6507 152.804 58.3363C148.964 56.2707 145.125 56.5837 144.127 59.15C143.129 61.7163 143.052 61.7163 140.825 60.0263C138.905 58.524 138.675 58.524 123.779 58.4614C103.2 58.4614 95.2911 56.8966 88.5339 51.5763C83.0821 47.1948 79.1661 46.0055 70.4125 46.0055C66.3429 46.0055 62.9643 45.9429 62.9643 45.9429C62.9643 45.8803 64.3464 45.0666 66.0357 44.1277C72.3321 40.56 74.8661 32.4229 71.3339 26.7896C68.0321 21.5318 62.1196 18.1518 54.1339 16.9626C49.0661 16.2114 48.6054 16.2114 43.9214 16.9626Z" fill="#832020"/>
<path d="M137.83 31.4215C134.221 32.4855 128.462 36.1159 126.62 38.6196C123.241 43.0011 123.395 48.9474 126.85 53.3915C127.848 54.6433 129.461 55.8952 130.536 56.1455C131.534 56.3333 135.911 56.2081 140.211 55.77C147.659 55.0189 148.273 55.0189 151.421 56.2707C153.188 56.9592 155.338 57.8981 156.029 58.3363C157.104 58.9622 157.871 58.837 160.636 57.2096C168.929 52.5152 170.618 43.2515 164.245 36.6792C162.709 35.1144 162.171 34.9892 159.561 35.3022C156.72 35.6778 156.643 35.6152 157.104 34.1129C157.488 32.7359 157.18 32.4229 154.8 31.6092C151.652 30.5452 141.362 30.42 137.83 31.4215Z" fill="#832020"/>
<path d="M165.55 55.457C164.321 56.7088 162.171 58.2736 160.789 58.9621C158.486 60.0262 158.179 60.5269 158.179 62.7177C158.179 68.1007 153.879 70.7921 143.205 71.9814C135.22 72.9203 114.257 73.4836 113.182 72.7951C112.721 72.5447 111.109 70.7921 109.496 68.9144C105.811 64.4703 104.736 63.907 100.359 63.8444C95.675 63.8444 93.8321 64.6581 92.45 67.3495C91.5286 69.2273 91.5286 69.7907 92.45 71.6684C94.8303 76.1751 102.355 83.2481 106.886 85.1884C112.107 87.3792 119.862 86.1273 122.857 82.6847C124.316 80.9947 126.236 80.9321 125.545 82.5595C125.161 83.6236 125.545 83.874 128.002 84.187C129.614 84.3747 132.148 84.7503 133.607 85.0007L136.218 85.5014L131.15 87.8799L126.082 90.321L125.775 94.4521C125.621 96.7055 126.005 99.5221 126.543 100.774C127.157 102.214 127.464 106.658 127.387 114.169L127.311 125.31L129.691 127.313C132.609 129.754 132.686 130.193 129.921 130.193C128.462 130.193 127.618 130.631 127.08 131.57C126.389 132.821 111.954 142.335 106.579 145.09C103.891 146.467 101.741 150.222 102.432 152.475C102.739 153.352 103.968 154.917 105.196 155.918C107.116 157.545 107.961 157.733 111.954 157.733C117.098 157.733 115.946 158.297 136.679 145.277C146.968 138.83 146.661 139.206 146.661 132.571V126.938L143.589 125.999C141.9 125.435 140.518 124.81 140.518 124.622C140.518 124.434 141.823 123.683 143.436 122.994L146.277 121.743L146.507 116.297C146.737 110.977 146.814 110.789 148.657 110.413C149.732 110.163 150.884 110.225 151.268 110.538C151.575 110.851 154.032 116.673 156.72 123.433C160.943 134.324 161.864 136.076 164.552 138.455C166.241 139.957 168.468 142.085 169.466 143.149C171.079 144.839 171.923 145.215 174.38 145.215C176.53 145.215 177.375 145.465 177.375 146.154C177.375 146.717 178.296 147.28 179.679 147.468C180.984 147.718 181.982 148.157 181.982 148.407C181.982 148.72 180.984 149.158 179.679 149.346C178.45 149.596 177.375 149.909 177.375 150.034C177.375 150.848 183.287 156.043 185.13 156.857C188.202 158.109 194.191 157.984 197.032 156.544C199.796 155.167 201.562 152.163 200.871 149.972C200.487 148.595 197.109 145.215 184.746 133.635C180.754 129.942 179.679 128.44 177.912 123.871C175.686 118.237 175.071 117.674 170.695 117.674C168.314 117.674 168.468 116.86 171.386 114.857L173.766 113.23L171.693 108.035C169.85 103.528 169.696 102.527 170.387 100.398C170.848 99.084 171.232 95.2032 171.232 91.8858V85.7518L167.623 84.2495C163.784 82.6847 164.014 82.2466 168.468 81.871C171.616 81.6207 171.923 80.2436 169.005 79.3047C166.011 78.4284 166.011 77.8651 168.929 77.3644L171.232 76.9888V71.6058V66.2229L173.766 66.661C179.755 67.6625 182.98 69.6029 187.127 74.7981C193.423 82.7473 194.959 83.9366 198.875 84.3121C201.486 84.4999 202.945 84.2495 204.864 83.3107C207.168 82.1214 207.321 81.7458 207.321 78.6788C207.321 75.5492 206.937 74.7981 202.484 69.4151C198.645 64.6581 197.339 63.4688 195.65 63.3436C194.037 63.1558 193.577 62.8429 193.73 61.7788C193.884 60.5895 193.346 60.3392 189.507 59.901C187.05 59.5881 185.054 59.0873 185.054 58.7744C185.054 58.4614 185.668 58.211 186.359 58.211C189.2 58.211 185.821 57.0218 177.759 55.144C173.075 54.0799 168.929 53.2036 168.545 53.2036C168.084 53.2036 166.779 54.2051 165.55 55.457Z" fill="#832020"/>
</svg>
