<svg width="160" height="158" viewBox="0 0 160 158" fill="none" xmlns="http://www.w3.org/2000/svg">
<path d="M121.634 29.3262C117.505 30.2008 116.186 30.3174 115.842 29.7927C115.556 29.2096 114.638 29.2096 112.057 29.6761C110.222 30.0259 105.462 30.8421 101.505 31.4834C97.5484 32.1248 93.0753 32.941 91.4695 33.2325C89.9212 33.524 76.7312 35.7395 62.2222 38.1882C18.9247 45.3595 7.16846 47.3417 6.99642 47.4583C6.93907 47.575 9.92115 48.9742 13.5914 50.6067C33.7204 59.4104 43.1255 63.6082 46.4516 65.124C48.5161 66.1152 52.7025 67.9809 55.7993 69.3801L61.4194 71.8871L70.4229 70.3713C75.3548 69.4967 84.8172 67.9226 91.4122 66.7565L103.398 64.7159L109.477 70.0798C112.803 73.0532 115.67 75.6185 115.842 75.7934C116.014 75.9683 117.219 77.0761 118.595 78.2421L121.004 80.4576H133.333H145.606L145.778 83.4893L145.95 86.5794L149.849 86.7543L153.692 86.9292V76.3764V65.8237L149.849 65.9986L145.95 66.1735L145.778 69.4967L145.606 72.8783H134.652H123.699L118.767 68.389C116.072 65.9403 113.778 63.7248 113.663 63.4916C113.491 63.0251 114.294 62.8502 119.857 61.9174C121.577 61.6259 122.437 61.1595 122.437 60.6347C122.437 60.0517 123.183 59.7019 124.903 59.5853L127.312 59.4104V43.6687C127.312 35.0399 127.254 28.0436 127.197 28.0436C127.082 28.1019 124.616 28.6849 121.634 29.3262Z" fill="#832020"/>
<path d="M27.1828 60.3432C27.3548 60.8096 27.8136 63.0251 28.1577 65.1823C28.9606 69.7882 29.9355 71.9454 31.7706 73.1697C34.6953 75.0937 36.4158 75.2103 44.9032 73.6945C49.3763 72.9365 53.3333 72.2952 53.6201 72.2952C54.2509 72.2952 52.8746 71.5373 47.3118 69.0303C45.4194 68.1557 40.1434 65.6487 35.6129 63.4915C31.0824 61.276 27.2401 59.4686 27.0681 59.4686C26.9534 59.4686 26.9534 59.8768 27.1828 60.3432Z" fill="#832020"/>
</svg>
