<svg width="211" height="150" viewBox="0 0 211 150" fill="none" xmlns="http://www.w3.org/2000/svg">
<path d="M99.9792 6.77779C96.9541 8.3889 91.2065 11.4445 87.1982 13.6111C83.1143 15.7222 79.4842 17.6667 79.0305 17.9445C78.6523 18.1667 76.081 19.5556 73.3584 20.9445C70.6358 22.3889 64.0563 25.8889 58.6111 28.8333C53.2416 31.7222 47.1158 35 44.9982 36.1111C42.9563 37.2222 36.8305 40.5 31.3853 43.3889C25.9401 46.3333 18.7556 50.1667 15.3523 52C11.9491 53.7778 9.1509 55.5 9.07527 55.7222C9.07527 56.3889 21.1756 64.4445 22.2344 64.4445C22.5369 64.4445 25.7889 62.8333 29.4946 60.8333C33.276 58.8333 39.4774 55.5556 43.2588 53.5C47.1158 51.4445 54.7541 47.3889 60.1993 44.5C76.0054 36 83.1143 32.2222 90.3745 28.3889C94.1559 26.4445 98.9204 23.8889 101.038 22.7222C105.5 20.2222 106.483 20.1111 109.433 21.8334C110.567 22.5 116.768 25.8333 123.121 29.1667C129.474 32.5556 137.037 36.5 139.91 38.0556C142.784 39.5556 150.649 43.7778 157.456 47.3889C164.262 50.9445 174.17 56.2778 179.615 59.1667C184.984 62.0556 189.673 64.4445 189.976 64.4445C190.581 64.4445 194.513 62 200.337 58L203.664 55.6667L195.496 51.3333C191.034 48.8889 181.278 43.6667 173.867 39.7222C166.456 35.7222 156.548 30.4445 151.859 27.9445C147.171 25.4445 138.398 20.7222 132.348 17.5C126.297 14.2222 120.02 10.8889 118.357 10.1111C116.693 9.27779 113.441 7.55557 111.096 6.22224C108.752 4.94446 106.559 3.8889 106.105 3.8889C105.727 3.8889 102.929 5.22224 99.9792 6.77779Z" fill="#832020"/>
<path d="M116.088 51.1667C102.777 59.7778 93.7021 68.2778 88.9376 76.3333C87.0469 79.7222 86.6688 81 86.6688 85.2778C86.5932 89.7778 86.8201 90.5556 88.7107 92.9444C92.4921 97.6111 97.786 99.7222 107.542 100.389C115.71 100.944 122.44 99.3333 127.659 95.6111C132.272 92.3333 133.406 90.3889 133.406 85.8333C133.406 81.3333 132.575 79.2778 128.188 72.7778C123.121 65.1667 121.533 60.7222 121.457 53.7222C121.457 50.4444 121.382 47.7778 121.382 47.7778C121.382 47.7778 118.962 49.3333 116.088 51.1667Z" fill="#832020"/>
<path d="M82.585 57.2777C82.585 60.8333 80.6943 66.6666 77.8961 71.4444C73.5853 78.7777 75.3247 88.2777 81.6018 92.4444C82.9631 93.3888 82.9631 93.2777 81.5262 91.111C78.2742 86.3333 80.3918 78.611 87.4251 69.4999C89.2402 67.111 90.7527 64.611 90.7527 63.9999C90.7527 62.5555 86.5932 56.7222 84.4 55.0555L82.6606 53.7777L82.585 57.2777Z" fill="#832020"/>
</svg>
