<svg width="211" height="158" viewBox="0 0 211 158" fill="none" xmlns="http://www.w3.org/2000/svg">
<g clip-path="url(#clip0)">
<path d="M0 54.1296V108.259H48.2286C75.3571 108.259 96.4571 108.025 96.4571 107.733C96.4571 107.44 95.9296 106.913 95.3268 106.504C94.7239 106.094 94.0457 104.924 93.7443 103.812L93.2921 101.822L51.3182 101.705L9.41964 101.53V54.1296V6.72963H104.746H200.073V54.1296V101.53L176.939 101.705C151.317 101.881 152.523 101.647 155.01 105.626L156.291 107.674H183.645H211V53.837V0H105.5H0V54.1296Z" fill="#832020"/>
<path d="M146.193 8.6608L144.309 9.83116L143.932 23.7586L143.555 37.686L129.991 40.3778C101.205 46.1712 94.6486 48.0438 88.62 52.3156C82.4407 56.646 80.7075 61.503 83.1943 67.4134C83.7971 68.8178 85.0028 71.9193 85.9071 74.3186C90.3532 86.0223 99.0193 105.158 100.451 106.387C101.657 107.382 102.862 107.674 105.575 107.674C110.021 107.674 112.584 106.27 112.433 103.812C112.357 102.349 107.384 89.709 105.575 86.3149C104.972 85.203 100.602 75.2549 99.6975 72.9727C99.4714 72.446 99.6221 71.9778 99.9236 71.9778C100.3 71.9778 102.26 74.5527 104.219 77.7127C110.247 87.2512 118.311 99.1304 119.516 100.125C120.119 100.593 120.571 101.179 120.571 101.413C120.571 101.588 122.907 104.865 125.696 108.669C128.559 112.473 131.272 116.159 131.724 116.803C132.478 117.915 132.026 118.734 128.71 122.655C120.421 132.486 117.859 135.529 116.276 137.226C111.83 142.2 106.404 149.105 106.027 150.334C105.349 152.382 107.309 155.484 110.172 156.83C113.111 158.293 119.29 158.176 122.305 156.654C123.887 155.835 133.081 145.477 151.619 123.533C155.462 118.91 155.839 117.505 154.105 113.819C149.433 103.636 147.7 99.7741 147.7 99.3645C147.7 99.1304 155.914 98.8378 165.936 98.7793L184.097 98.6038L172.492 92.5178C166.087 89.1238 159.38 85.6127 157.496 84.6764C155.311 83.5645 153.578 82.043 152.674 80.5215C151.92 79.1756 148.077 73.0897 144.234 66.9452C140.315 60.8008 137.15 55.4756 137.15 55.1245C137.15 54.7734 137.753 54.3638 138.506 54.1882C140.918 53.5445 156.14 46.2882 157.195 45.2349C158.024 44.4156 158.175 40.6704 158.25 27.4452C158.25 8.01709 158.325 8.25117 151.769 7.78302C148.83 7.54895 147.7 7.7245 146.193 8.6608Z" fill="#832020"/>
<path d="M91.5589 17.9652C84.2493 20.2474 79.8032 23.9341 79.2757 28.1474C78.7482 32.5948 79.5771 34.76 82.9682 37.3348C88.6953 41.8407 96.9093 43.5963 105.726 42.1333C110.549 41.3726 116.804 38.0955 119.14 35.1696C121.325 32.4192 121.099 26.977 118.763 24.0511C116.728 21.5348 111.076 18.5504 106.63 17.6141C102.335 16.6778 95.1007 16.8533 91.5589 17.9652Z" fill="#832020"/>
<path d="M116.276 105.743C114.844 108.025 114.995 108.259 118.009 108.259C119.516 108.259 120.571 108.084 120.421 107.791C117.708 103.519 117.632 103.461 116.276 105.743Z" fill="#832020"/>
</g>
<defs>
<clipPath id="clip0">
<rect width="211" height="158" fill="white"/>
</clipPath>
</defs>
</svg>
