<svg width="223" height="158" viewBox="0 0 223 158" fill="none" xmlns="http://www.w3.org/2000/svg">
<path d="M134.995 5.59695C130.057 6.93791 114.208 11.1357 99.5536 14.8671C94.9343 16.0331 86.5718 18.3069 80.8375 19.8228C75.1829 21.397 64.1921 24.2538 56.5464 26.2361C48.9007 28.2184 42.0514 30.084 41.3346 30.3172C40.0604 30.842 37.8304 36.4973 34.9632 46.3505C34.1668 49.2073 33.1314 52.239 32.7332 53.0553C31.22 56.087 30.9811 59.3519 32.335 60.2848C32.9721 60.8095 33.7686 61.2176 34.0075 61.2176C35.2021 61.2176 54.1571 57.3696 66.1036 54.6877C73.3511 53.1136 90.4743 49.3239 104.252 46.2922L129.181 40.8117L140.888 48.5077C147.26 52.7054 152.914 56.4368 153.312 56.7866C153.79 57.1364 155.542 58.3025 157.295 59.4102C159.047 60.518 164.224 63.9578 168.843 67.0479C173.462 70.1379 181.187 75.2685 185.966 78.4169C190.824 81.6235 196.001 85.0634 197.514 86.1128C200.381 88.0951 203.806 88.6198 205.319 87.3372C205.717 86.9291 207.071 83.5475 208.266 79.8744C209.461 76.2014 211.133 71.2457 212.009 68.8553C212.806 66.5232 213.682 63.0833 213.921 61.2759L214.399 58.011L179.117 31.8914C159.764 17.4907 142.959 5.42205 141.844 5.01393C140.092 4.3726 139.136 4.4309 134.995 5.59695Z" fill="#832020"/>
<path d="M95.1732 55.0959C51.3696 64.366 47.6264 65.2988 46.9096 67.0479C45.4761 70.7793 42.6886 78.8833 39.025 90.0774C36.795 96.7822 34.4854 103.895 33.7686 105.819C33.1314 107.743 32.0164 111.125 31.2996 113.398C30.6625 115.614 29.7864 117.713 29.4679 118.004C28.1936 118.996 21.5832 116.022 18.6364 113.049C15.7693 110.134 14.0968 109.609 11.0704 110.775C8.44214 111.824 9.15893 114.448 12.9818 117.888C19.6718 123.893 29.3882 126.05 40.6179 123.951C49.2193 122.319 56.3075 118.646 64.4311 111.474C69.3689 107.16 73.2714 105.528 78.8464 105.528C84.4214 105.528 87.6071 106.635 91.2707 109.9C99.0757 116.838 103.615 119.987 108.553 121.736C121.057 126.167 135.393 125.584 146.065 120.162C150.127 118.063 153.711 115.497 159.047 111.008C163.905 106.81 167.17 105.528 172.825 105.528C179.196 105.528 182.382 106.985 188.833 112.932C189.231 113.34 190.665 113.69 192.019 113.69C195.125 113.69 196.559 111.591 195.205 109.142C194.09 107.16 190.426 104.187 186.444 101.913C183.417 100.222 183.417 101.33 186.683 90.952C187.718 87.5704 187.718 87.104 186.683 86.4627C185.09 85.6464 167.011 74.1025 153.392 65.2988C147.658 61.6258 140.49 57.0199 137.384 55.0959C134.358 53.1719 131.092 51.1313 130.216 50.5483C129.34 49.9653 128.066 49.2656 127.429 49.0324C126.712 48.7409 114.367 51.073 95.1732 55.0959ZM115.482 85.763C124.004 87.104 131.251 88.3284 131.65 88.5616C131.968 88.7948 131.411 91.4767 130.375 94.5084C129.26 97.5402 127.827 102.088 127.03 104.653C124.721 112.291 122.809 117.888 122.331 118.179C121.694 118.646 113.889 116.663 110.146 115.089C108.314 114.331 104.093 111.241 100.669 108.326C94.6954 103.021 92.8636 101.68 91.43 101.33C90.7132 101.155 94.8546 87.104 96.4475 84.0723C96.9254 83.1394 97.6421 82.7896 98.5979 83.0228C99.3146 83.1977 106.96 84.4221 115.482 85.763Z" fill="#832020"/>
<path d="M74.3864 124.767C66.9796 125.875 61.9621 128.441 55.9889 134.154C52.4846 137.594 46.4318 141.034 41.5736 142.433C39.5029 143.016 35.9986 143.424 32.5739 143.424C25.645 143.424 22.0611 142.142 18.7161 138.41C13.3004 132.463 6.53071 135.728 11.4686 141.908C13.6986 144.707 19.5125 148.088 23.8132 149.196C28.1139 150.246 37.4321 149.954 43.2461 148.672C50.0954 147.097 56.6261 143.483 63.6346 137.361C68.6521 132.988 69.7671 132.288 73.59 131.414C78.4482 130.306 83.5454 130.598 87.3682 132.288C88.7221 132.93 91.8282 135.32 94.2175 137.711C102.739 145.931 110.863 149.255 123.606 149.721C130.216 149.954 132.207 149.779 137.145 148.613C144.313 146.922 150.844 143.424 157.215 137.652C164.144 131.472 169.878 129.665 177.604 131.181C180.949 131.822 183.736 133.571 189.152 138.294C190.824 139.751 193.612 139.46 195.045 137.594C196.001 136.253 196.001 135.845 194.806 133.979C192.815 130.948 188.196 127.741 183.338 126.108C179.674 124.826 178.241 124.709 172.188 124.884C163.347 125.117 159.126 126.633 153.392 131.414C141.286 141.617 137.065 143.424 125.676 143.424C115.721 143.424 110.544 141.733 104.252 136.37C95.8103 129.198 92.0671 126.691 87.9257 125.759C82.5896 124.534 78.2889 124.184 74.3864 124.767Z" fill="#832020"/>
</svg>
