<svg width="32" height="32" viewBox="0 0 32 32" fill="none" xmlns="http://www.w3.org/2000/svg">
<path d="M17.3333 2.73332V5.42666C22.6 6.07999 26.6667 10.56 26.6667 16C26.6667 20.28 24.1067 24 20.3733 25.7067L17.3333 22.6667V29.3333H24L22.3733 27.7067C26.5467 25.4267 29.3333 21.0133 29.3333 16C29.3333 9.09332 24.0667 3.39999 17.3333 2.73332ZM14.6667 2.66666C12.0667 2.93332 9.59999 3.94666 7.57332 5.61332L9.46666 7.50666C10.9801 6.33996 12.7731 5.59059 14.6667 5.33332V2.66666ZM5.59999 7.57332C3.94666 9.59999 2.93332 12.0667 2.66666 14.6667H5.33332C5.58666 12.7733 6.33332 10.9733 7.50666 9.46666L5.59999 7.57332ZM7.99999 10.6667V13.3333H12V14.6667H10.6667C9.19999 14.6667 7.99999 15.8667 7.99999 17.3333V21.3333H14.6667V18.6667H10.6667V17.3333H12C13.48 17.3333 14.6667 16.1467 14.6667 14.6667V13.3333C14.6667 12.6261 14.3857 11.9478 13.8856 11.4477C13.3855 10.9476 12.7072 10.6667 12 10.6667H7.99999ZM16 10.6667V17.3333H20V21.3333H22.6667V17.3333H24V14.6667H22.6667V10.6667H20V14.6667H18.6667V10.6667H16ZM2.66666 17.3333C2.93332 19.9333 3.95999 22.4 5.62666 24.4267L7.51999 22.5333C6.34934 21.0208 5.59541 19.2279 5.33332 17.3333H2.66666ZM9.47999 24.4933L7.57332 26.3867C9.59916 28.0407 12.0651 29.0651 14.6667 29.3333V26.6667C12.7756 26.4152 10.9854 25.6651 9.47999 24.4933Z" fill="black"/>
</svg>
